<svg width="30" height="28" fill="none" xmlns="http://www.w3.org/2000/svg"><g clip-path="url(#clip0_1_48)" stroke="#FFFEFE" stroke-width="1.5" stroke-linecap="round" stroke-linejoin="round"><path d="M24.375 4.296H5.625c-.518 0-.938.391-.938.873v17.466c0 .482.42.873.938.873h18.75c.518 0 .938-.39.938-.873V5.169c0-.482-.42-.873-.938-.873zm-3.75-1.746v3.493M9.375 2.55v3.493M4.688 9.536h20.625"/><path d="M10.781 13.902h3.281l-1.874 2.183c.308 0 .611.07.883.206.272.135.504.331.675.57a1.638 1.638 0 01.174 1.639 1.76 1.76 0 01-.543.681 1.937 1.937 0 01-.823.363 2.007 2.007 0 01-.91-.04 1.905 1.905 0 01-.781-.437m6.012-3.855l1.875-1.31v5.676"/></g><defs><clipPath id="clip0_1_48"><path fill="#fff" d="M0 0h30v28H0z"/></clipPath></defs></svg>