<svg width="42" height="42" fill="none" xmlns="http://www.w3.org/2000/svg"><g clip-path="url(#clip0_10_92)"><path d="M40.813 20.906C40.813 9.913 31.9 1 20.905 1 9.913 1 1 9.913 1 20.906 1 31.9 9.913 40.813 20.906 40.813c10.994 0 19.907-8.913 19.907-19.907z" stroke="#FFFEFC" stroke-width="2" stroke-miterlimit="10"/><path d="M38.787 12.906c-1.537.01-1.386 2.845-3.301 1.507-.711-.495-1.149-1.216-2.042-1.435-.78-.192-1.579.007-2.35.14-.875.152-1.913.22-2.577.883-.642.638-.982 1.495-1.666 2.137-1.321 1.244-1.88 2.602-1.024 4.361.823 1.691 2.545 2.609 4.403 2.488 1.825-.121 3.72-1.18 3.668 1.472-.02.938.177 1.589.465 2.46.267.805.249 1.584.31 2.413.113 1.55.398 3.289 1.168 4.658l1.435-2.025c.177-.25.548-.602.636-.898.156-.523-.151-1.423-.187-2.01-.035-.586-.018-1.18-.108-1.767-.126-.822-.612-1.592-.68-2.405-.123-1.513.154-2.72-1.012-3.986-1.125-1.22-2.775-1.513-4.352-1.265-.794.124-3.991.635-2.708-1.18.254-.357.697-.65.982-.99.248-.295.463-.84.754-1.07.291-.23 1.627-.495 2.01-.378.383.118.782.67 1.114.915.613.462 1.33.77 2.087.896 1.307.191 4.04-.569 4.02-2.245-.004-.804-.75-1.924-1.045-2.676zM23.654 26.702c-.51-2.147-3.428-2.865-5.002-4.03-.904-.67-1.709-1.704-2.896-1.788-.548-.04-1.006.08-1.549-.061-.498-.129-.888-.397-1.418-.327-.99.13-1.616 1.189-2.68 1.045-1.01-.136-2.05-1.317-2.28-2.279-.294-1.236.684-1.637 1.732-1.747.437-.046.928-.096 1.348.064.553.206.815.747 1.311 1.021.931.51 1.12-.305.977-1.132-.213-1.238-.462-1.744.643-2.595.765-.588 1.42-1.013 1.297-2.068-.072-.62-.412-.901-.095-1.518.24-.47.9-.894 1.329-1.175 1.11-.723 4.752-.67 3.263-2.695-.437-.594-1.244-1.656-2.01-1.802-.956-.18-1.381.887-2.048 1.358-.69.487-2.031 1.04-2.721.287-.928-1.013.615-1.346.957-2.053.341-.708-.792-2.045-1.398-2.383L9.56 6.023a3.974 3.974 0 00.798 3.049c.567.73 1.47.965 1.512 1.962.04.957-.11 1.447-.735 2.12-.27.287-.462.695-.738.963-.338.329-.212.228-.74.318-.991.168-1.835.426-2.793.69-1.597.441-1.744-2.166-2.471-3.19L2 13.868c-.026.316.393.9.506 1.244.654 1.969 1.973 3.491 2.825 5.374.896 1.995 3.304 1.442 4.368 3.19.943 1.55-.065 3.513.642 5.136.513 1.178 1.722 1.435 2.557 2.297.853.87.834 2.06.965 3.192.146 1.332.385 2.652.712 3.95.116.45.223 1.043.53 1.413.21.255.933.474.641.558.408.067 1.134.448 1.474.169.448-.368.328-1.499.406-2.01.232-1.522.994-3.01 2.022-4.149 1.015-1.123 2.407-1.884 3.264-3.158.836-1.242 1.087-2.918.741-4.372zm-3.196 2.52c-.574 1.024-1.852 1.71-2.674 2.525-.223.221-.698.987-.978.821-.2-.119-.268-1.112-.341-1.34a5.854 5.854 0 00-2.078-2.866c-.3-.227-1.042-.522-1.213-.833-.192-.337-.02-1.135-.013-1.502.01-.536-.233-1.427-.101-1.914.153-.562-.142-.223.36-.334.265-.06 1.36.133 1.69.202.525.109.814.435 1.227.765 1.088.872 2.285 1.547 3.503 2.215.944.522 1.221 1.184.618 2.26zm-6.66-26.37c.453.443.88.968 1.557 1.012.64.043 1.244-.304 1.803.132.62.478 1.067 1.084 1.89 1.234.796.144 1.64-.321 1.836-1.135.192-.777-.22-1.62-.246-2.4 0-.108.059-.588-.016-.67-.055-.06-.519.008-.59.01a19.82 19.82 0 00-7.025 1.51c.234.16.525.224.79.307zM30.252 8.23c.812 0 1.637-.364 1.375-1.304-.22-.787-.595-1.642-1.508-1.217-.581.27-1.404.957-1.472 1.639-.078.773 1.063.882 1.605.882zm-.65 4.112c.83.497 2.061.263 2.687-.446.49-.555.777-1.518 1.657-1.518.387 0 .759.151 1.035.422.364.377.292.73.37 1.2.173 1.058 1.307.06 1.603-.349.191-.267.45-.663.364-1.01-.08-.325-.46-.67-.628-.968-.492-.861-.897-1.863-1.634-2.559-.71-.67-1.581-.592-2.254.103-.551.575-1.191 1.03-1.568 1.728-.266.49-.566.725-1.105.853-.296.07-.635.095-.884.294-.693.546-.299 1.856.358 2.25z" fill="#FFFCF3"/></g><defs><clipPath id="clip0_10_92"><path fill="#fff" d="M0 0h42v42H0z"/></clipPath></defs></svg>