<svg width="14" height="11" fill="none" xmlns="http://www.w3.org/2000/svg"><g id="Frame" clip-path="url(#clip0_17_533)"><path id="Vector" d="M13.912 1.312L9.625 5.3l4.287 3.989C14 9.122 14 8.956 14 8.79V1.81c0-.166-.088-.332-.088-.498zM12.775.647H1.225C1.05.647.875.73.7.73l5.425 5.152c.438.415 1.225.415 1.75 0L13.3.73c-.175 0-.35-.083-.525-.083zM.087 1.312c0 .166-.087.332-.087.498v6.98c0 .166.087.332.087.499L4.376 5.3.088 1.312zm8.925 4.57l-.524.582c-.875.747-2.1.747-2.975 0l-.526-.582L.7 9.87c.175.083.35.083.525.083h11.55c.175 0 .35-.083.525-.083L9.012 5.882z" fill="#BCC9DA"/></g><defs><clipPath id="clip0_17_533"><path fill="#fff" transform="translate(0 .647)" d="M0 0h14v9.389H0z"/></clipPath></defs></svg>