<svg width="46" height="46" fill="none" xmlns="http://www.w3.org/2000/svg"><path d="M14.672 20.169c1.476 0 2.672-1.157 2.672-2.585 0-1.427-1.197-2.584-2.672-2.584C13.196 15 12 16.157 12 17.584c0 1.428 1.196 2.585 2.672 2.585zm8.017 16.446c-5.057 0-9.31-3.18-10.656-7.52a.834.834 0 01.152-.759.885.885 0 01.318-.25.916.916 0 01.401-.086h19.56a.916.916 0 01.4.086.886.886 0 01.319.25.849.849 0 01.15.76C32 33.434 27.746 36.614 22.69 36.614zm7.983-16.446c1.476 0 2.672-1.157 2.672-2.585 0-1.427-1.197-2.584-2.672-2.584C29.196 15 28 16.157 28 17.584c0 1.428 1.196 2.585 2.672 2.585z" fill="#FDF8F8"/><path d="M23 44c11.598 0 21-9.402 21-21S34.598 2 23 2 2 11.402 2 23s9.402 21 21 21z" stroke="#FDF8F8" stroke-width="2" stroke-miterlimit="10"/></svg>