<svg width="16" height="22" fill="none" xmlns="http://www.w3.org/2000/svg"><ellipse cx="7.385" cy="13.065" rx="7.385" ry="7.465" fill="#000" fill-opacity=".1"/><ellipse cx="7.385" cy="13.065" rx="3.077" ry="3.111" fill="#000" fill-opacity=".3"/><path d="M7.958 12.953a.746.746 0 00-.76-.75c-.433 0-.779.317-.779.734 0 .416.329.75.761.75.415 0 .76-.334.778-.734z" fill="#000"/><path d="M10.033 2.35C8.926 1.3 7.249.9 5.693 1.583c-1.124.5-1.971 1.5-2.213 2.684-.07.283-.104.583-.104.867 0 1.084.415 2.167 1.107 3.018l2.732 3.317 2.818-3.25c1.452-1.668 1.677-4.269 0-5.87zM5.987 3.6a1.955 1.955 0 012.68.033 1.79 1.79 0 01-.035 2.585c-.743.7-1.954.683-2.68-.034a1.833 1.833 0 01-.536-1.3c0-.467.19-.934.57-1.284z" fill="red"/></svg>