<svg width="102" height="17" fill="none" xmlns="http://www.w3.org/2000/svg"><path d="M5.913 10.61h6.82l-3.3-8.14h-.22l-3.3 8.14zM11.853.6l6.27 15.4h-3.168l-1.452-3.74h-8.36L3.69 16H.523L6.793.6h5.06zM23.08 16H20V4.78h3.08V16zm.11-14.19c0 .44-.154.829-.462 1.166-.294.323-.69.484-1.188.484-.5 0-.902-.161-1.21-.484a1.725 1.725 0 01-.44-1.166c0-.44.146-.821.44-1.144.308-.337.71-.506 1.21-.506.484 0 .88.169 1.188.506.308.323.462.704.462 1.144zM34.96 6.1h-2.64c-.997 0-1.76.271-2.288.814-.527.528-.791 1.32-.791 2.376V16h-3.08V9.29c0-1.496.469-2.655 1.407-3.476.954-.836 2.318-1.254 4.092-1.254h3.3V6.1zM44.633.6c1.1 0 2.083.125 2.948.374.88.235 1.62.587 2.222 1.056a4.566 4.566 0 011.386 1.694c.322.66.484 1.415.484 2.266 0 .85-.161 1.613-.484 2.288a4.81 4.81 0 01-1.386 1.694c-.602.455-1.342.807-2.222 1.056-.865.235-1.848.352-2.948.352h-4.73V16h-3.19V.6h7.92zm-4.73 1.65v7.48h4.73c1.159 0 2.053-.3 2.684-.902.645-.616.968-1.562.968-2.838s-.323-2.215-.968-2.816c-.63-.616-1.526-.924-2.684-.924h-4.73zM57.172 16h-3.08V.6h3.08V16zm5.617-3.63c0 1.393.843 2.09 2.53 2.09h3.08v-4.18h-3.08c-1.687 0-2.53.697-2.53 2.09zm5.61-3.63c0-1.056-.279-1.833-.836-2.332-.543-.499-1.254-.748-2.134-.748-.66 0-1.306.103-1.936.308-.63.19-1.196.455-1.694.792l-.77-1.32c.322-.22.674-.41 1.056-.572.396-.161.8-.293 1.21-.396a9.44 9.44 0 011.21-.264c.41-.059.792-.088 1.144-.088.938 0 1.767.11 2.486.33.718.22 1.327.535 1.826.946.498.41.872.902 1.122 1.474.264.557.396 1.18.396 1.87V16h-6.16c-1.995 0-3.469-.3-4.422-.902-.939-.601-1.408-1.51-1.408-2.728 0-1.217.47-2.127 1.408-2.728.953-.601 2.427-.902 4.422-.902h3.08zM86.539 16h-3.08V9.07c0-1.056-.265-1.811-.793-2.266-.528-.47-1.29-.704-2.288-.704h-2.86V16h-3.08V4.56h5.94c2.098 0 3.645.381 4.642 1.144 1.012.748 1.518 1.87 1.518 3.366V16zm9.56-1.1a5.29 5.29 0 002.002-.374 7.858 7.858 0 001.848-1.056l.88 1.32a5.13 5.13 0 01-.99.682c-.367.205-.77.381-1.21.528a9.434 9.434 0 01-1.342.308c-.47.088-.939.132-1.408.132-1.041 0-1.995-.14-2.86-.418-.85-.264-1.577-.653-2.178-1.166a5.499 5.499 0 01-1.408-1.936c-.323-.763-.484-1.643-.484-2.64 0-.983.154-1.855.462-2.618.323-.777.763-1.423 1.32-1.936a5.598 5.598 0 012.024-1.188c.777-.279 1.635-.418 2.574-.418.88 0 1.709.132 2.486.396a5.768 5.768 0 012.024 1.166 5.472 5.472 0 011.364 1.826c.337.719.506 1.533.506 2.442v1.54h-9.394c.176 1.217.594 2.09 1.254 2.618.675.528 1.518.792 2.53.792zm-.77-9.35c-.425 0-.821.08-1.188.242-.367.161-.69.418-.968.77-.264.352-.484.807-.66 1.364-.161.557-.25 1.232-.264 2.024h6.16c0-.763-.088-1.423-.264-1.98-.176-.557-.41-1.012-.704-1.364a2.427 2.427 0 00-.99-.792 2.568 2.568 0 00-1.122-.264z" fill="#000"/></svg>