<svg width="14" height="15" fill="none" xmlns="http://www.w3.org/2000/svg"><g id="Frame" clip-path="url(#clip0_17_537)"><path id="Vector" d="M13.563 10.439s-2.8-1.911-3.588-1.828c-.35.083-.612.332-.963.748-.087.083-.262.249-.35.415-.262-.083-.525-.166-.787-.332C6.562 8.943 5.513 7.946 4.9 6.7c-.088-.25-.263-.499-.35-.748.175-.083.35-.25.438-.333.524-.332.787-.581.787-.914C5.95 3.958 3.937 1.3 3.85 1.3c-.087-.25-.438-.416-.7-.416C2.275.883 0 3.708 0 4.207c0 0 0 2.825 3.763 6.398 3.675 3.573 6.737 3.573 6.737 3.573.525 0 3.5-2.16 3.5-2.992 0-.249-.175-.581-.438-.747z" fill="#BCC9DA"/></g><defs><clipPath id="clip0_17_537"><path fill="#fff" transform="translate(0 .883)" d="M0 0h14v13.294H0z"/></clipPath></defs></svg>