<svg width="42" height="42" viewBox="0 0 42 42" fill="none" xmlns="http://www.w3.org/2000/svg">
<g clip-path="url(#clip0_10_92)">
<path d="M40.8125 20.9062C40.8125 9.91283 31.8997 1 20.9062 1C9.91283 1 1 9.91283 1 20.9062C1 31.8997 9.91283 40.8125 20.9062 40.8125C31.8997 40.8125 40.8125 31.8997 40.8125 20.9062Z" stroke="#FFFEFC" stroke-width="2" stroke-miterlimit="10"/>
<path d="M38.7866 12.9059C37.2496 12.9155 37.4008 15.7512 35.4858 14.4132C34.7747 13.9175 34.3373 13.1968 33.4444 12.9777C32.6644 12.7863 31.8653 12.9853 31.0949 13.1184C30.2192 13.2696 29.1808 13.3375 28.5167 14.0007C27.8745 14.6391 27.5347 15.4956 26.8514 16.1378C25.5298 17.3819 24.9718 18.74 25.8274 20.499C26.6504 22.1901 28.3721 23.1079 30.2297 22.9873C32.0548 22.8657 33.9507 21.8072 33.898 24.4592C33.8789 25.3971 34.0751 26.0479 34.3632 26.9197C34.6302 27.7236 34.612 28.5026 34.6732 29.3324C34.7862 30.8828 35.0714 32.6207 35.8408 33.9903L37.2764 31.9652C37.4534 31.7144 37.8238 31.3632 37.9118 31.0675C38.0678 30.544 37.7606 29.6444 37.7252 29.0577C37.6898 28.4711 37.707 27.8767 37.6171 27.2901C37.4907 26.468 37.0046 25.6976 36.9376 24.8851C36.8141 23.372 37.0907 22.1642 35.925 20.899C34.7996 19.6788 33.1496 19.386 31.5734 19.6338C30.7791 19.7582 27.5816 20.2693 28.865 18.4538C29.1186 18.0968 29.5617 17.804 29.8469 17.4642C30.0948 17.1685 30.3101 16.6249 30.6011 16.3943C30.892 16.1636 32.228 15.8985 32.6108 16.0163C32.9936 16.134 33.3927 16.6862 33.7248 16.9312C34.3384 17.3933 35.0544 17.7006 35.8121 17.827C37.1194 18.0184 39.8527 17.2585 39.8316 15.5818C39.8278 14.7779 39.0813 13.6581 38.7866 12.9059ZM23.654 26.7025C23.1439 24.5549 20.2259 23.8371 18.6525 22.6724C17.7481 22.0025 16.9433 20.9679 15.7556 20.8837C15.2082 20.8445 14.7498 20.9631 14.2071 20.8225C13.7095 20.6942 13.319 20.4263 12.7888 20.4961C11.7983 20.6263 11.1733 21.6847 10.1091 21.5412C9.09945 21.4053 8.05915 20.2243 7.82947 19.2625C7.5347 18.026 8.51279 17.625 9.56074 17.515C9.9981 17.469 10.4891 17.4193 10.9092 17.5791C11.4624 17.7848 11.7236 18.3265 12.2203 18.6002C13.1515 19.1103 13.3401 18.2949 13.1975 17.4681C12.984 16.2297 12.7352 15.7244 13.8396 14.8726C14.6052 14.285 15.2599 13.8601 15.1374 12.8045C15.0646 12.1843 14.7249 11.9039 15.0417 11.2866C15.2819 10.8167 15.9413 10.3927 16.371 10.1123C17.4802 9.38881 21.1226 9.44241 19.6344 7.41733C19.1971 6.82301 18.3903 5.76071 17.6247 5.61524C16.6676 5.43436 16.2427 6.5024 15.5757 6.97326C14.8866 7.46039 13.5449 8.01356 12.8548 7.26037C11.9265 6.24688 13.4702 5.91383 13.8119 5.20658C14.1535 4.49934 13.0204 3.16237 12.4136 2.82358L9.56074 6.02293C9.47878 6.55873 9.50731 7.10564 9.64457 7.63C9.78184 8.15437 10.0249 8.64511 10.3589 9.07203C10.9264 9.80225 11.8299 10.0367 11.871 11.0339C11.9112 11.991 11.7619 12.481 11.136 13.1538C10.8652 13.4409 10.6738 13.8486 10.3981 14.1175C10.0603 14.4458 10.1857 14.3453 9.65835 14.4352C8.66687 14.6027 7.82277 14.8611 6.86478 15.1253C5.26845 15.5664 5.12107 12.9585 4.39372 11.9355L2.00115 13.8677C1.97531 14.1845 2.39353 14.7673 2.50742 15.1119C3.16107 17.0805 4.47986 18.6031 5.33161 20.4865C6.22835 22.481 8.63624 21.9278 9.6995 23.6754C10.6431 25.2258 9.63539 27.1886 10.3417 28.8118C10.8546 29.9899 12.0643 30.2473 12.8989 31.1086C13.7516 31.9786 13.7334 33.1691 13.8635 34.3013C14.0103 35.633 14.2486 36.953 14.5765 38.2519C14.6923 38.7008 14.7986 39.2941 15.1058 39.6645C15.3163 39.9191 16.0389 40.1382 15.747 40.2224C16.1547 40.2894 16.8811 40.6703 17.2208 40.3909C17.6687 40.0234 17.5491 38.8922 17.6266 38.3811C17.8592 36.8594 18.621 35.3713 19.6488 34.2324C20.6642 33.1088 22.0557 32.348 22.9132 31.0742C23.7487 29.832 24.0004 28.1562 23.654 26.7025ZM20.4584 29.2214C19.8842 30.2463 18.6056 30.9325 17.7835 31.747C17.5606 31.9681 17.0859 32.7337 16.8064 32.5681C16.6064 32.4494 16.5384 31.456 16.4648 31.2283C16.0846 30.0813 15.3588 29.0801 14.387 28.362C14.0875 28.1351 13.3448 27.8404 13.1735 27.5293C12.9821 27.1915 13.1544 26.3943 13.1611 26.0268C13.1716 25.4909 12.9276 24.5999 13.0596 24.1127C13.2128 23.551 12.918 23.8897 13.4204 23.7787C13.6855 23.7194 14.7804 23.9118 15.1106 23.9807C15.635 24.0898 15.924 24.4161 16.3375 24.7463C17.4247 25.6181 18.6219 26.2929 19.8402 26.9609C20.7838 27.4834 21.0614 28.1447 20.4584 29.2214ZM13.7975 2.85229C14.2511 3.29539 14.678 3.81985 15.3546 3.86387C15.9949 3.90694 16.5987 3.56049 17.1576 3.99594C17.7778 4.47446 18.2247 5.08026 19.0478 5.22955C19.844 5.37406 20.6872 4.90895 20.8843 4.09451C21.0757 3.31836 20.6633 2.47426 20.6384 1.69524C20.6384 1.58709 20.6968 1.10666 20.6221 1.02531C20.5666 0.964064 20.1034 1.03297 20.0326 1.03488C19.5139 1.0502 18.9964 1.08593 18.4803 1.14207C16.5986 1.34574 14.7558 1.81789 13.008 2.54412C13.2405 2.7049 13.5324 2.76903 13.7975 2.85229ZM30.2527 8.22889C31.0652 8.22889 31.8902 7.86522 31.628 6.92541C31.4078 6.13778 31.0327 5.28315 30.1197 5.70807C29.5388 5.97795 28.7157 6.6651 28.6478 7.34651C28.5702 8.11979 29.711 8.22889 30.2527 8.22889ZM29.6038 12.3413C30.4336 12.838 31.6643 12.6044 32.2902 11.8953C32.7793 11.3402 33.0673 10.3765 33.9468 10.3774C34.3341 10.3766 34.706 10.5282 34.9824 10.7995C35.346 11.1756 35.2743 11.5287 35.3518 11.9996C35.525 13.0571 36.6591 12.0599 36.9548 11.6503C37.1462 11.3833 37.4056 10.9871 37.3185 10.6397C37.2381 10.3152 36.8591 9.96973 36.6907 9.67209C36.1987 8.81077 35.7939 7.80875 35.057 7.11299C34.3478 6.44307 33.476 6.52059 32.8032 7.21635C32.2519 7.79057 31.6117 8.24516 31.2346 8.94379C30.9686 9.43475 30.669 9.66922 30.1302 9.79651C29.8335 9.86637 29.4947 9.89221 29.2459 10.0913C28.553 10.6368 28.9473 11.947 29.6038 12.3413Z" fill="#FFFCF3"/>
</g>
<defs>
<clipPath id="clip0_10_92">
<rect width="42" height="42" fill="white"/>
</clipPath>
</defs>
</svg>
