<svg width="14" height="11" viewBox="0 0 14 11" fill="none" xmlns="http://www.w3.org/2000/svg">
<g id="Frame" clip-path="url(#clip0_17_533)">
<path id="Vector" d="M13.9125 1.31194L9.625 5.30029L13.9125 9.28863C14 9.12245 14 8.95627 14 8.79009V1.81048C14 1.6443 13.9125 1.47812 13.9125 1.31194ZM12.775 0.647217H1.225C1.05 0.647217 0.875 0.730307 0.7 0.730307L6.125 5.88192C6.5625 6.29737 7.35 6.29737 7.875 5.88192L13.3 0.730307C13.125 0.730307 12.95 0.647217 12.775 0.647217ZM0.0875 1.31194C0.0875 1.47812 0 1.6443 0 1.81048V8.79009C0 8.95627 0.0875 9.12245 0.0875 9.28863L4.375 5.30029L0.0875 1.31194ZM9.0125 5.88192L8.4875 6.46355C7.6125 7.21137 6.3875 7.21137 5.5125 6.46355L4.9875 5.88192L0.7 9.87027C0.875 9.95336 1.05 9.95335 1.225 9.95335H12.775C12.95 9.95335 13.125 9.87027 13.3 9.87027L9.0125 5.88192Z" fill="#BCC9DA"/>
</g>
<defs>
<clipPath id="clip0_17_533">
<rect width="14" height="9.38923" fill="white" transform="translate(0 0.647217)"/>
</clipPath>
</defs>
</svg>
