<svg width="102" height="17" viewBox="0 0 102 17" fill="none" xmlns="http://www.w3.org/2000/svg">
<path d="M5.91273 10.61H12.7327L9.43273 2.47H9.21274L5.91273 10.61ZM11.8527 0.599999L18.1227 16H14.9547L13.5027 12.26H5.14273L3.69073 16H0.522734L6.79273 0.599999H11.8527ZM23.0796 16H19.9996V4.78H23.0796V16ZM23.1896 1.81C23.1896 2.25 23.0356 2.63867 22.7276 2.976C22.4343 3.29867 22.0383 3.46 21.5396 3.46C21.0409 3.46 20.6376 3.29867 20.3296 2.976C20.0363 2.63867 19.8896 2.25 19.8896 1.81C19.8896 1.37 20.0363 0.988666 20.3296 0.665999C20.6376 0.328666 21.0409 0.159999 21.5396 0.159999C22.0236 0.159999 22.4196 0.328666 22.7276 0.665999C23.0356 0.988666 23.1896 1.37 23.1896 1.81ZM34.9605 6.1H32.3205C31.3231 6.1 30.5605 6.37133 30.0325 6.914C29.5045 7.442 29.2405 8.234 29.2405 9.29V16H26.1605V9.29C26.1605 7.794 26.6298 6.63533 27.5685 5.814C28.5218 4.978 29.8858 4.56 31.6605 4.56H34.9605V6.1ZM44.6319 0.599999C45.7319 0.599999 46.7145 0.724666 47.5799 0.973999C48.4599 1.20867 49.2005 1.56067 49.8019 2.03C50.4032 2.48467 50.8652 3.04933 51.1879 3.724C51.5105 4.384 51.6719 5.13933 51.6719 5.99C51.6719 6.84067 51.5105 7.60333 51.1879 8.278C50.8652 8.938 50.4032 9.50267 49.8019 9.972C49.2005 10.4267 48.4599 10.7787 47.5799 11.028C46.7145 11.2627 45.7319 11.38 44.6319 11.38H39.9019V16H36.7119V0.599999H44.6319ZM39.9019 2.25V9.73H44.6319C45.7905 9.73 46.6852 9.42933 47.3159 8.828C47.9612 8.212 48.2839 7.266 48.2839 5.99C48.2839 4.714 47.9612 3.77533 47.3159 3.174C46.6852 2.558 45.7905 2.25 44.6319 2.25H39.9019ZM57.1727 16H54.0927V0.599999H57.1727V16ZM62.7888 12.37C62.7888 13.7633 63.6321 14.46 65.3188 14.46H68.3988V10.28H65.3188C63.6321 10.28 62.7888 10.9767 62.7888 12.37ZM68.3988 8.74C68.3988 7.684 68.1201 6.90667 67.5628 6.408C67.0201 5.90933 66.3088 5.66 65.4288 5.66C64.7688 5.66 64.1234 5.76267 63.4928 5.968C62.8621 6.15867 62.2974 6.42267 61.7988 6.76L61.0288 5.44C61.3514 5.22 61.7034 5.02933 62.0848 4.868C62.4808 4.70667 62.8841 4.57467 63.2948 4.472C63.7054 4.35467 64.1088 4.26667 64.5048 4.208C64.9154 4.14933 65.2968 4.12 65.6488 4.12C66.5874 4.12 67.4161 4.23 68.1348 4.45C68.8534 4.67 69.4621 4.98533 69.9608 5.396C70.4594 5.80667 70.8334 6.298 71.0828 6.87C71.3468 7.42733 71.4788 8.05067 71.4788 8.74V16H65.3188C63.3241 16 61.8501 15.6993 60.8968 15.098C59.9581 14.4967 59.4888 13.5873 59.4888 12.37C59.4888 11.1527 59.9581 10.2433 60.8968 9.642C61.8501 9.04067 63.3241 8.74 65.3188 8.74H68.3988ZM86.5384 16H83.4584V9.07C83.4584 8.014 83.1944 7.25867 82.6664 6.804C82.1384 6.33467 81.3758 6.1 80.3784 6.1H77.5184V16H74.4384V4.56H80.3784C82.4758 4.56 84.0231 4.94133 85.0204 5.704C86.0324 6.452 86.5384 7.574 86.5384 9.07V16ZM96.099 14.9C96.8177 14.9 97.485 14.7753 98.101 14.526C98.7317 14.2767 99.3477 13.9247 99.949 13.47L100.829 14.79C100.55 15.0393 100.22 15.2667 99.839 15.472C99.4723 15.6773 99.069 15.8533 98.629 16C98.2037 16.132 97.7563 16.2347 97.287 16.308C96.8177 16.396 96.3483 16.44 95.879 16.44C94.8377 16.44 93.8843 16.3007 93.019 16.022C92.1683 15.758 91.4423 15.3693 90.841 14.856C90.2397 14.328 89.7703 13.6827 89.433 12.92C89.1103 12.1573 88.949 11.2773 88.949 10.28C88.949 9.29733 89.103 8.42467 89.411 7.662C89.7337 6.88467 90.1737 6.23933 90.731 5.726C91.303 5.198 91.9777 4.802 92.755 4.538C93.5323 4.25933 94.3903 4.12 95.329 4.12C96.209 4.12 97.0377 4.252 97.815 4.516C98.5923 4.78 99.267 5.16867 99.839 5.682C100.411 6.18067 100.866 6.78933 101.203 7.508C101.54 8.22667 101.709 9.04067 101.709 9.95V11.49H92.315C92.491 12.7073 92.909 13.58 93.569 14.108C94.2437 14.636 95.087 14.9 96.099 14.9ZM95.329 5.55C94.9037 5.55 94.5077 5.63067 94.141 5.792C93.7743 5.95333 93.4517 6.21 93.173 6.562C92.909 6.914 92.689 7.36867 92.513 7.926C92.3517 8.48333 92.2637 9.158 92.249 9.95H98.409C98.409 9.18733 98.321 8.52733 98.145 7.97C97.969 7.41267 97.7343 6.958 97.441 6.606C97.1623 6.23933 96.8323 5.97533 96.451 5.814C96.0843 5.638 95.7103 5.55 95.329 5.55Z" fill="white"/>
</svg>
