<svg width="46" height="46" viewBox="0 0 46 46" fill="none" xmlns="http://www.w3.org/2000/svg">
<path d="M14.6719 20.169C16.1475 20.169 17.3438 19.0118 17.3438 17.5845C17.3438 16.1571 16.1475 15 14.6719 15C13.1962 15 12 16.1571 12 17.5845C12 19.0118 13.1962 20.169 14.6719 20.169Z" fill="#FDF8F8"/>
<path d="M22.6886 36.615C17.6321 36.615 13.3794 33.435 12.0334 29.0953C11.9958 28.9661 11.9898 28.8303 12.0161 28.6985C12.0423 28.5667 12.1 28.4427 12.1846 28.3364C12.2691 28.23 12.3782 28.1442 12.5031 28.0858C12.628 28.0274 12.7653 27.9981 12.904 28.0001H32.4632C32.6019 27.9981 32.7392 28.0274 32.8641 28.0858C32.989 28.1442 33.0981 28.23 33.1827 28.3364C33.2672 28.4427 33.3249 28.5667 33.3512 28.6985C33.3774 28.8303 33.3715 28.9661 33.3338 29.0953C31.999 33.435 27.7452 36.615 22.6886 36.615Z" fill="#FDF8F8"/>
<path d="M30.6719 20.169C32.1475 20.169 33.3438 19.0118 33.3438 17.5845C33.3438 16.1571 32.1475 15 30.6719 15C29.1962 15 28 16.1571 28 17.5845C28 19.0118 29.1962 20.169 30.6719 20.169Z" fill="#FDF8F8"/>
<path d="M23 44C34.598 44 44 34.598 44 23C44 11.402 34.598 2 23 2C11.402 2 2 11.402 2 23C2 34.598 11.402 44 23 44Z" stroke="#FDF8F8" stroke-width="2" stroke-miterlimit="10"/>
</svg>
