<svg width="16" height="22" viewBox="0 0 16 22" fill="none" xmlns="http://www.w3.org/2000/svg">
<ellipse cx="7.38462" cy="13.0645" rx="7.38462" ry="7.46547" fill="#000000" fill-opacity="0.1"/>
<ellipse cx="7.3846" cy="13.0645" rx="3.07692" ry="3.11061" fill="#000000" fill-opacity="0.3"/>
<path d="M7.95804 12.9531C7.95804 12.5363 7.62951 12.2029 7.19724 12.2029C6.76496 12.2029 6.41914 12.5197 6.41914 12.9365C6.41914 13.3533 6.74767 13.6867 7.17995 13.6867C7.59493 13.6867 7.94075 13.3533 7.95804 12.9531Z" fill="#000000"/>
<path d="M10.0329 2.34963C8.92632 1.29929 7.2491 0.899156 5.69291 1.58271C4.56899 2.08288 3.72174 3.08321 3.47966 4.26693C3.4105 4.55036 3.37592 4.85045 3.37592 5.13388C3.37592 6.21757 3.7909 7.30126 4.48254 8.15154L7.21452 11.4693L10.0329 8.21823C11.4854 6.55101 11.7102 3.95016 10.0329 2.34963ZM5.98686 3.60004C6.73037 2.89981 7.94074 2.91649 8.66696 3.63339C9.39318 4.35029 9.37589 5.51734 8.63238 6.21757C7.88886 6.9178 6.67849 6.90113 5.95227 6.18423C5.58916 5.81744 5.41625 5.35062 5.41625 4.8838C5.41625 4.41698 5.60645 3.95016 5.98686 3.60004Z" fill="#ff0000"/>
</svg>
