<svg width="14" height="15" viewBox="0 0 14 15" fill="none" xmlns="http://www.w3.org/2000/svg">
<g id="Frame" clip-path="url(#clip0_17_537)">
<path id="Vector" d="M13.5625 10.4387C13.5625 10.4387 10.7625 8.52763 9.975 8.61072C9.625 8.69381 9.3625 8.94308 9.0125 9.35853C8.925 9.44162 8.75 9.60781 8.6625 9.77399C8.4 9.6909 8.1375 9.60781 7.875 9.44162C6.5625 8.94308 5.5125 7.94599 4.9 6.69964C4.8125 6.45037 4.6375 6.20109 4.55 5.95182C4.725 5.86873 4.9 5.70255 4.9875 5.61946C5.5125 5.2871 5.775 5.03783 5.775 4.70546C5.95 3.95765 3.9375 1.29875 3.85 1.29875C3.7625 1.04948 3.4125 0.883301 3.15 0.883301C2.275 0.883301 0 3.70838 0 4.20692C0 4.20692 0 7.032 3.7625 10.6049C7.4375 14.1778 10.5 14.1778 10.5 14.1778C11.025 14.1778 14 12.0174 14 11.1865C14 10.9373 13.825 10.6049 13.5625 10.4387Z" fill="#BCC9DA"/>
</g>
<defs>
<clipPath id="clip0_17_537">
<rect width="14" height="13.2945" fill="white" transform="translate(0 0.883301)"/>
</clipPath>
</defs>
</svg>
